<svg height="512pt" viewBox="0 0 512 512.00055" width="512pt" xmlns="http://www.w3.org/2000/svg"><path d="m146.246094 300.472656c28.714844-104.980468 133.261718-246.179687 242.601562-298.878906 9.953125-4.800781 21.652344 1.765625 22.804688 12.753906l2.644531 25.199219c.800781 7.652344 7.117187 13.546875 14.808594 13.816406l28.964843 1.023438c10.085938.355469 17.402344 9.742187 15.285157 19.609375l-6.667969 31.074218c-1.5 6.992188 1.589844 14.171876 7.699219 17.890626l32.644531 19.871093c7.742188 4.714844 6.109375 16.417969-2.640625 18.789063-93.835937 25.425781-240.367187 126.046875-280.613281 190.253906zm0 0" fill="#88c8e9"/><g fill="#73b6d9"><path d="m223.777344 351.875c16.515625-26.347656 50.933594-58.824219 92.257812-89.722656-56.667968-8.179688-88.410156-58.53125-97.292968-105.921875-34.261719 48.226562-60.261719 99.519531-72.496094 144.242187zm0 0"/><path d="m217.996094 240.800781c-1.21875 0-2.449219-.296875-3.59375-.925781-3.632813-1.988281-4.964844-6.546875-2.976563-10.179688 11.621094-21.21875 51.0625-73.03125 81.90625-92.308593 3.507813-2.195313 8.140625-1.125 10.332031 2.386719 2.195313 3.511718 1.128907 8.140624-2.382812 10.335937-27.507812 17.191406-65.292969 65.964844-76.699219 86.789063-1.363281 2.492187-3.933593 3.902343-6.585937 3.902343zm0 0"/><path d="m294.199219 230.847656c-1.996094 0-3.988281-.789062-5.464844-2.359375-2.839844-3.015625-2.695313-7.761719.320313-10.601562 11.679687-10.992188 29.429687-25.40625 46.328124-37.617188 14.757813-10.667969 36.085938-24.925781 53.886719-32.261719 3.832031-1.578124 8.214844.246094 9.789063 4.078126 1.582031 3.828124-.246094 8.210937-4.074219 9.789062-28.476563 11.738281-73.847656 46.417969-95.644531 66.933594-1.449219 1.363281-3.296875 2.039062-5.140625 2.039062zm0 0"/></g><path d="m179.375 213.914062-40.910156 22.28125c-6.738282 3.667969-14.53125 4.902344-22.074219 3.496094l-45.792969-8.550781c-28.589844-5.335937-53.625 19.699219-48.289062 48.292969l8.550781 45.789062c1.40625 7.542969.171875 15.339844-3.5 22.078125l-22.277344 40.90625c-13.914062 25.539063 2.160157 57.089844 31.003907 60.847657l46.191406 6.019531c7.609375.992187 14.640625 4.574219 19.914062 10.148437l32.019532 33.832032c19.992187 21.121093 54.964843 15.582031 67.453124-10.683594l19.996094-42.070313c3.296875-6.929687 8.878906-12.511719 15.808594-15.808593l42.070312-19.996094c26.269532-12.488282 31.804688-47.457032 10.683594-67.453125l-33.832031-32.019531c-5.574219-5.273438-9.15625-12.308594-10.148437-19.914063l-6.019532-46.191406c-3.757812-28.84375-35.308594-44.917969-60.847656-31.003907zm0 0" fill="#ade9f0"/><path d="m201.664062 488.367188 19.996094-42.066407c1.335938-2.8125 3.066406-5.386719 5.09375-7.691406-122.863281-21.707031-174.246094-132.652344-175.558594-206.472656-19.359374 5.777343-32.957031 25.492187-28.886718 47.292969l8.550781 45.792968c1.40625 7.542969.171875 15.339844-3.5 22.074219l-22.277344 40.910156c-13.914062 25.539063 2.160157 57.089844 31.003907 60.847657l46.191406 6.015624c7.609375.992188 14.640625 4.578126 19.914062 10.148438l32.019532 33.832031c19.992187 21.125 54.964843 15.585938 67.453124-10.683593zm0 0" fill="#98dae3"/><path d="m111.605469 387.300781c-8.597657-8.597656-24.316407-6.816406-35.113281 3.980469-10.796876 10.792969-12.578126 26.515625-3.980469 35.113281 8.597656 8.597657 24.316406 6.816407 35.113281-3.980469 10.796875-10.796874 12.578125-26.519531 3.980469-35.113281zm0 0" fill="#fff"/><path d="m178.472656 320.441406c8.597656 8.597656 24.316406 6.816406 35.113282-3.980468 10.796874-10.796876 12.578124-26.515626 3.980468-35.113282s-24.316406-6.816406-35.113281 3.980469-12.578125 26.515625-3.980469 35.113281zm0 0" fill="#fff"/><path d="m76.949219 392.699219c-1.917969 0-3.839844-.730469-5.304688-2.195313l-8.390625-8.390625c-2.929687-2.929687-2.929687-7.679687 0-10.605469 2.929688-2.929687 7.679688-2.929687 10.605469 0l8.390625 8.390626c2.929688 2.929687 2.929688 7.675781 0 10.605468-1.460938 1.464844-3.382812 2.195313-5.300781 2.195313zm0 0" fill="#495059"/><path d="m148.835938 326.148438c-9.742188-9.738282-24.691407-10.578126-33.394532-1.875-8.707031 8.703124-7.867187 23.65625 1.875 33.394531 9.738282 9.742187 24.691406 10.582031 33.394532 1.875 8.703124-8.703125 7.863281-23.65625-1.875-33.394531zm0 0" fill="#495059"/><path d="m176.367188 293.28125c-1.917969 0-3.839844-.734375-5.300782-2.195312l-8.390625-8.390626c-2.933593-2.929687-2.933593-7.679687-.003906-10.605468 2.929687-2.933594 7.679687-2.929688 10.609375-.003906l8.390625 8.390624c2.929687 2.929688 2.929687 7.679688 0 10.605469-1.464844 1.464844-3.386719 2.199219-5.304687 2.199219zm0 0" fill="#495059"/><path d="m180 131.613281c-1.011719 0-2.039062-.203125-3.023438-.636719-3.789062-1.675781-5.503906-6.101562-3.832031-9.890624 16.527344-37.460938 46.558594-75.441407 78.378907-99.117188 3.324218-2.476562 8.023437-1.785156 10.496093 1.539062 2.472657 3.320313 1.785157 8.019532-1.539062 10.492188-29.863281 22.222656-58.070313 57.914062-73.613281 93.140625-1.238282 2.804687-3.984376 4.472656-6.867188 4.472656zm0 0" fill="#73b6d9"/><path d="m409.144531 268.070312c-1.914062 0-3.824219-.726562-5.289062-2.179687-2.9375-2.917969-2.953125-7.667969-.03125-10.605469 7.988281-8.039062 36.8125-34.757812 72.332031-41.027344 4.074219-.71875 7.96875 2.003907 8.6875 6.082032.71875 4.082031-2.003906 7.972656-6.082031 8.691406-31.171875 5.5-57.097657 29.578125-64.296875 36.824219-1.46875 1.480469-3.394532 2.214843-5.320313 2.214843zm0 0" fill="#73b6d9"/></svg>