<svg height="512pt" viewBox="-34 0 512 512.0005" width="512pt" xmlns="http://www.w3.org/2000/svg"><path d="m436.328125 232.707031c0-107.441406-95.804687-194.539062-213.988281-194.539062s-213.988282 87.097656-213.988282 194.539062c0 107.4375 95.804688 194.535157 213.988282 194.535157s213.988281-87.097657 213.988281-194.535157zm0 0" fill="#ddaf89"/><path d="m8.351562 232.707031c0 107.4375 95.804688 194.535157 213.988282 194.535157 52.015625 0 99.691406-16.878907 136.777344-44.929688-111.414063-30.105469-164.179688-92.839844-186.492188-158.953125-2.230469-6.609375 3.664062-13.105469 10.472656-11.601563 12.617188 2.785157 25.558594 4.804688 39.242188 4.804688 44.171875 0 80.601562-21.027344 123.355468-21.027344 30.652344 0 46.71875 7.546875 70.347657 13.59375 7.050781 1.808594 13.667969-.695312 17.929687-5.34375-5.21875-31.832031-18.925781-61.144531-38.957031-85.980468-41.839844-44.382813-103.726563-72.53125-172.675781-72.53125-19.03125 0-37.523438 2.152343-55.203125 6.191406.53125-2.453125 1.074219-4.832032 1.621093-7.144532-92.253906 21.621094-160.40625 97.769532-160.40625 188.386719zm0 0" fill="#d4a883"/><path d="m375.101562 209.820312c0 4.054688-3.289062 7.34375-7.34375 7.34375-4.058593 0-7.347656-3.289062-7.347656-7.34375 0-4.058593 3.289063-7.347656 7.347656-7.347656 4.054688 0 7.34375 3.289063 7.34375 7.347656zm0 0" fill="#d4a883"/><path d="m57.722656 217.164062c0 4.058594-3.289062 7.347657-7.34375 7.347657-4.058594 0-7.347656-3.289063-7.347656-7.347657 0-4.058593 3.289062-7.34375 7.347656-7.34375 4.054688 0 7.34375 3.285157 7.34375 7.34375zm0 0" fill="#ddaf89"/><path d="m130.164062 202.472656c0 4.058594-3.289062 7.347656-7.347656 7.347656s-7.347656-3.289062-7.347656-7.347656 3.289062-7.347656 7.347656-7.347656 7.347656 3.289062 7.347656 7.347656zm0 0" fill="#ddaf89"/><path d="m220.171875 226.863281c0 4.058594-3.289063 7.347657-7.347656 7.347657-4.058594 0-7.347657-3.289063-7.347657-7.347657 0-4.058593 3.289063-7.347656 7.347657-7.347656 4.058593 0 7.347656 3.289063 7.347656 7.347656zm0 0" fill="#d4a883"/><path d="m313.382812 228.433594c0 4.058594-3.289062 7.347656-7.34375 7.347656-4.058593 0-7.347656-3.289062-7.347656-7.347656 0-4.054688 3.289063-7.34375 7.347656-7.34375 4.054688 0 7.34375 3.289062 7.34375 7.34375zm0 0" fill="#d4a883"/><path d="m280.796875 512h-116.914063l-15.777343-217.488281c-2.132813-29.355469 21.109375-54.339844 50.539062-54.339844h47.390625c29.429688 0 52.671875 24.984375 50.542969 54.339844zm0 0" fill="#65b188"/><path d="m163.882812 512h-49.347656c-39.441406 0-73.550781-27.484375-81.9375-66.023438l-31.417968-144.355468c-6.875-31.589844 17.1875-61.449219 49.515624-61.449219h46.335938c26.5625 0 48.617188 20.511719 50.542969 47.003906zm0 0" fill="#7bd0a7"/><path d="m330.144531 512h-49.347656l16.3125-224.824219c1.921875-26.492187 23.976563-47.003906 50.539063-47.003906h46.335937c32.328125 0 56.390625 29.859375 49.515625 61.449219l-31.417969 144.355468c-8.386719 38.539063-42.496093 66.023438-81.9375 66.023438zm0 0" fill="#7bd0a7"/><path d="m222.339844 24.152344c-99.371094 0-184.085938 58.453125-215.234375 139.738281-5.277344 13.769531 7.238281 27.777344 21.523437 24.121094 23.632813-6.050781 39.699219-13.597657 70.355469-13.597657 42.757813 0 79.1875 21.023438 123.355469 21.023438 44.171875 0 80.601562-21.023438 123.355468-21.023438 30.65625 0 46.722657 7.546876 70.355469 13.597657 14.285157 3.65625 26.800781-10.351563 21.527344-24.121094-31.152344-81.289063-115.867187-139.738281-215.238281-139.738281zm0 0" fill="#c8a185"/><path d="m175.449219 28.59375c-78.476563 15.070312-142.230469 67.15625-168.34375 135.296875-5.277344 13.769531 7.238281 27.777344 21.523437 24.121094 23.632813-6.050781 39.699219-13.597657 70.355469-13.597657 42.753906 0 79.1875 21.027344 123.355469 21.027344 8.277344 0 16.285156-.742187 24.113281-1.941406-70.679687-26.167969-91.796875-117.449219-71.003906-164.90625zm0 0" fill="#b59178"/><path d="m162.199219 137.234375c0-15.464844-15.746094-28.003906-35.171875-28.003906-19.421875 0-35.167969 12.539062-35.167969 28.003906 0 15.46875 15.746094 28.007813 35.167969 28.007813 19.425781 0 35.171875-12.539063 35.171875-28.007813zm0 0" fill="#fff"/><path d="m352.820312 137.234375c0-15.464844-15.746093-28.003906-35.167968-28.003906s-35.167969 12.539062-35.167969 28.003906c0 15.46875 15.746094 28.007813 35.167969 28.007813s35.167968-12.539063 35.167968-28.007813zm0 0" fill="#fff"/><g fill="#495059"><path d="m147.523438 116.796875c-4.140626 0-7.5-3.355469-7.5-7.5v-12.417969c0-4.144531 3.359374-7.5 7.5-7.5 4.144531 0 7.5 3.355469 7.5 7.5v12.417969c0 4.144531-3.355469 7.5-7.5 7.5zm0 0"/><path d="m297.15625 116.796875c-4.144531 0-7.5-3.355469-7.5-7.5v-12.417969c0-4.144531 3.355469-7.5 7.5-7.5 4.140625 0 7.5 3.355469 7.5 7.5v12.417969c0 4.144531-3.359375 7.5-7.5 7.5zm0 0"/><path d="m222.339844 126.332031c-9.726563 0-18.976563-4.210937-25.378906-11.554687-2.71875-3.125-2.394532-7.863282.726562-10.582032 3.125-2.722656 7.859375-2.398437 10.582031.726563 3.554688 4.074219 8.679688 6.410156 14.070313 6.410156s10.519531-2.335937 14.070312-6.410156c2.722656-3.125 7.460938-3.449219 10.582032-.726563 3.125 2.71875 3.449218 7.457032.726562 10.582032-6.402344 7.34375-15.652344 11.554687-25.378906 11.554687zm0 0"/></g><path d="m375.363281 151.503906c-4.851562 0-9.699219-1.851562-13.402343-5.550781-7.402344-7.402344-7.402344-19.402344 0-26.804687l27.429687-27.433594c7.402344-7.398438 19.402344-7.402344 26.804687 0 7.402344 7.402344 7.402344 19.402344 0 26.804687l-27.429687 27.433594c-3.699219 3.699219-8.550781 5.550781-13.402344 5.550781zm0 0" fill="#eb8d9a"/><path d="m213.371094 65.335938c-4.851563 0-9.699219-1.847657-13.402344-5.550782-7.402344-7.402344-7.402344-19.402344 0-26.804687l27.429688-27.429688c7.402343-7.402343 19.402343-7.402343 26.804687 0 7.402344 7.402344 7.402344 19.402344 0 26.804688l-27.429687 27.429687c-3.699219 3.703125-8.550782 5.550782-13.402344 5.550782zm0 0" fill="#ececed"/><path d="m72.996094 141.898438c-4.851563 0-9.699219-1.851563-13.402344-5.550782l-27.429688-27.429687c-7.402343-7.402344-7.402343-19.402344 0-26.804688 7.402344-7.402343 19.402344-7.402343 26.804688 0l27.429688 27.429688c7.402343 7.402343 7.402343 19.402343 0 26.804687-3.699219 3.699219-8.550782 5.550782-13.402344 5.550782zm0 0" fill="#eb8d9a"/><path d="m157.246094 420.523438 6.636718 91.476562h96.519532c-43.007813-19.425781-77.15625-52.335938-103.15625-91.476562zm0 0" fill="#5ca17b"/><path d="m32.597656 445.976562c8.386719 38.539063 42.496094 66.023438 81.9375 66.023438h49.347656l-6.636718-91.476562c-36.257813-54.589844-56.664063-121.269532-63.113282-180.351563h-43.4375c-32.328124 0-56.390624 29.859375-49.515624 61.449219zm0 0" fill="#68bf97"/></svg>